<svg width="1600" height="1300" viewBox="0 0 1600 1300" fill="none" xmlns="http://www.w3.org/2000/svg">
  <rect width="1600" height="1300" fill="#EAF4FF"/>
  <rect y="962" width="1600" height="338" fill="#D7E8FB"/>
  <rect x="894" y="274" width="456" height="566" rx="24" fill="#0A2A66" fill-opacity="0.14"/>
  <path d="M0 952L435 732L819 836L1161 676L1600 870V1300H0V952Z" fill="#4FB3FF" fill-opacity="0.18"/>
  <rect x="132" y="224" width="680" height="474" rx="34" fill="#F7FBFF" stroke="#030712" stroke-opacity="0.08" stroke-width="4"/>
  <rect x="184" y="276" width="576" height="110" rx="18" fill="#030712" fill-opacity="0.06"/>
  <rect x="184" y="426" width="576" height="226" rx="26" fill="#030712" fill-opacity="0.05"/>
  <rect x="944" y="330" width="356" height="354" rx="28" fill="#030712" fill-opacity="0.08"/>
  <path d="M212 1077H1410" stroke="#030712" stroke-opacity="0.16" stroke-width="8" stroke-linecap="round" stroke-dasharray="14 16"/>
  <path d="M234 990C366.5 932.667 482.5 904 582 904C681.5 904 816.333 938 986.5 1006C1156.67 1074 1292.5 1108 1394 1108" stroke="#030712" stroke-opacity="0.3" stroke-width="24" stroke-linecap="round"/>
  <rect x="256" y="928" width="248" height="122" rx="18" fill="#F4F9FF" stroke="#030712" stroke-opacity="0.08" stroke-width="4"/>
  <rect x="1090" y="869" width="210" height="164" rx="24" fill="#F4F9FF" stroke="#030712" stroke-opacity="0.08" stroke-width="4"/>
  <circle cx="1216" cy="536" r="110" fill="#4FB3FF" fill-opacity="0.25"/>
  <path d="M287 1009H471" stroke="#0A2A66" stroke-width="14" stroke-linecap="round"/>
  <path d="M287 972H438" stroke="#0A2A66" stroke-opacity="0.56" stroke-width="14" stroke-linecap="round"/>
  <path d="M1134 1001H1258" stroke="#0A2A66" stroke-width="14" stroke-linecap="round"/>
  <path d="M1134 964H1233" stroke="#0A2A66" stroke-opacity="0.56" stroke-width="14" stroke-linecap="round"/>
</svg>