<svg width="720" height="180" viewBox="0 0 720 180" fill="none" xmlns="http://www.w3.org/2000/svg">
  <rect width="720" height="180" rx="24" fill="#F6EFE6"/>
  <rect x="28" y="28" width="124" height="124" rx="28" fill="#13110F"/>
  <path d="M54 54H84.25C117.801 54 145 81.199 145 114.75C145 148.301 117.801 175.5 84.25 175.5H54V54Z" fill="#C95E32"/>
  <path d="M81 80H84.25C103.166 80 118.5 95.3342 118.5 114.25C118.5 133.166 103.166 148.5 84.25 148.5H81V80Z" fill="#F6EFE6"/>
  <path d="M190 73.4H260.4C285.1 73.4 303 90.2 303 114.2C303 138.2 285.1 155 260.4 155H190V73.4ZM251.1 133.8C263.4 133.8 271.9 126.7 271.9 114.2C271.9 101.7 263.4 94.6 251.1 94.6H220.3V133.8H251.1Z" fill="#13110F"/>
  <path d="M324.241 73.4H390.341V93.2H354.541V105.4H386.541V124.1H354.541V155H324.241V73.4Z" fill="#13110F"/>
  <path d="M405.406 73.4H475.806C500.506 73.4 518.406 90.2 518.406 114.2C518.406 138.2 500.506 155 475.806 155H405.406V73.4ZM466.506 133.8C478.806 133.8 487.306 126.7 487.306 114.2C487.306 101.7 478.806 94.6 466.506 94.6H435.706V133.8H466.506Z" fill="#13110F"/>
  <path d="M538.146 73.4H569.346L604.646 155H572.146L566.046 139.3H539.946L533.846 155H502.846L538.146 73.4ZM558.046 118.7L553.046 105.5L548.046 118.7H558.046Z" fill="#13110F"/>
  <path d="M617.488 73.4H647.788V131H684.788V155H617.488V73.4Z" fill="#13110F"/>
</svg>