<svg width="800" height="800" viewBox="0 0 800 800" fill="none" xmlns="http://www.w3.org/2000/svg">
  <rect width="800" height="800" fill="#F4F9FF"/>
  <g opacity="0.28">
    <circle cx="117" cy="140" r="2.5" fill="#030712"/>
    <circle cx="286" cy="219" r="1.5" fill="#030712"/>
    <circle cx="450" cy="88" r="2" fill="#030712"/>
    <circle cx="638" cy="154" r="1.25" fill="#030712"/>
    <circle cx="725" cy="248" r="2.25" fill="#030712"/>
    <circle cx="98" cy="486" r="1.75" fill="#030712"/>
    <circle cx="246" cy="420" r="1.25" fill="#030712"/>
    <circle cx="332" cy="602" r="2.4" fill="#030712"/>
    <circle cx="482" cy="516" r="1.4" fill="#030712"/>
    <circle cx="649" cy="602" r="2.2" fill="#030712"/>
    <circle cx="734" cy="713" r="1.3" fill="#030712"/>
    <circle cx="155" cy="690" r="2.1" fill="#030712"/>
  </g>
  <g stroke="#030712" stroke-opacity="0.08" stroke-width="2">
    <path d="M82 122C107 112.667 126 112.667 139 122"/>
    <path d="M565 252C595 241.333 620 244.667 640 262"/>
    <path d="M304 534C328.667 525.333 346.667 530 358 548"/>
    <path d="M638 628C664.667 616.667 687 619.667 705 637"/>
    <path d="M130 716C155.333 707.333 176 710.333 192 725"/>
  </g>
</svg>